<?xml version="1.0" encoding="UTF-8"?>
<svg width="80px" height="63px" viewBox="0 0 80 63" version="1.1" xmlns="http://www.w3.org/2000/svg" xmlns:xlink="http://www.w3.org/1999/xlink">
    <title>G@3x</title>
    <g id="Page-1" stroke="none" stroke-width="1" fill="none" fill-rule="evenodd">
        <g id="G">
            <g id="Group" transform="translate(39.8592, 31.9358) scale(-1, 1) rotate(-180) translate(-39.8592, -31.9358)translate(20.0787, 15.456)" fill="#006838" fill-rule="nonzero">
                <g id="Clipped" transform="translate(0, 0)">
                    <g id="Group" transform="translate(0, 0)">
                        <g transform="translate(0, 0)" id="Path">
                            <path d="M25.1467988,11.298208 C24.8561322,12.5502077 23.8214658,12.5555411 22.2974662,13.0075409 C19.2788002,13.4022075 18.5414671,15.8875402 21.8947996,16.0648735 L26.8427983,16.0648735 C29.4867977,16.0928735 35.3414629,16.1835402 37.0174625,16.1048735 C40.0641284,16.0475402 40.7281282,14.020874 37.0414625,13.1115409 C36.0734627,12.8742076 34.4787964,12.0502079 34.4481298,10.284875 C34.4347965,9.34754186 34.4481298,3.59287663 34.4481298,3.59287663 C34.4481298,3.59287663 32.8281302,-0.249789074 17.0054675,0.0128775268 C7.25613658,0.216877476 0.393471629,0.474210745 0,15.4208737 C-0.0491949273,34.7995355 13.1041351,32.6008694 18.2214672,32.959536 C25.4787987,32.8568693 29.2814644,32.0235362 31.3921305,31.298203 C34.6561297,30.22887 34.793463,28.7662037 34.841463,26.1235377 C34.885463,23.462205 34.2481298,20.9688723 31.017464,20.8422057 C26.4867984,20.4822057 26.1401319,22.3502053 25.8187986,24.0328715 C25.1467988,29.0155369 24.7961322,29.2848702 18.997467,29.3262035 C10.5854691,29.3822035 9.65346931,25.2675379 9.85213593,15.9862069 C10.0014692,8.98354195 10.1454692,3.90354322 18.3614671,4.00620986 C22.753466,3.99687653 25.2334654,4.29154312 25.2334654,7.25020905 C25.2334654,7.25020905 25.4614654,9.90887505 25.1467988,11.298208"></path>
                        </g>
                    </g>
                </g>
            </g>
            <rect id="Rectangle" stroke="#FFFFFF" stroke-width="3" x="1.5" y="1.5" width="76.56" height="59.96" rx="12"></rect>
        </g>
    </g>
</svg>