<?xml version="1.0" encoding="UTF-8"?>
<svg width="111px" height="62px" viewBox="0 0 111 62" version="1.1" xmlns="http://www.w3.org/2000/svg" xmlns:xlink="http://www.w3.org/1999/xlink">
    <title>PG@2x</title>
    <g id="Page-1" stroke="none" stroke-width="1" fill="none" fill-rule="evenodd">
        <g id="PG" transform="translate(-0, 0)">
            <g id="Group" transform="translate(54.991, 31.2055) scale(-1, 1) rotate(-180) translate(-54.991, -31.2055)translate(19.2774, 15.2853)" fill="#F15A29" fill-rule="nonzero">
                <g id="Clipped" transform="translate(-0, 0)">
                    <g id="Group" transform="translate(-0, 0)">
                        <g transform="translate(0, 0.6334)" id="Shape">
                            <path d="M18.7916289,3.0887117 C15.932963,3.58871157 14.4302967,3.8927115 14.53963,6.85937742 L14.4782967,11.9100428 C15.4049631,11.8660428 16.3929629,11.8900428 17.2116293,11.8900428 C28.2329599,11.8900428 34.2102917,10.8380431 33.4716253,22.2753736 C33.338292,30.1407049 27.9622933,29.804705 16.4436295,29.804705 C12.4622972,29.804705 9.35296463,29.7180384 7.05963187,29.7180384 C5.36763229,29.7180384 4.17829926,29.776705 1.80229985,29.6527051 C-0.456366251,29.6007051 -0.604366214,27.5740389 1.42763328,26.9140391 C3.67696605,25.9460393 5.53429892,26.6433725 5.68363221,23.7553732 L5.68363221,6.63537748 C5.63429889,3.21271167 3.45429944,3.43537828 2.35296638,2.98604506 C-0.657699534,2.73671179 -0.309699621,0.12871244 1.72096654,0.0527124586 C2.89829958,0.0113791356 4.98363239,0.0260457986 7.49696509,0.0260457986 C12.6249638,0.0260457986 18.7182956,-0.0246208554 20.0729619,0.0153791346 C21.9996281,0.0793791186 22.2489614,2.83937843 18.7916289,3.0887117 M14.53963,15.3633753 L14.53963,25.2007062 C14.53963,26.1993726 15.2436298,26.4220392 17.4289626,26.4220392 C22.2089614,26.4887058 23.6422944,25.4300394 24.004961,21.8820403 C24.1049609,14.9647087 21.7942949,15.322042 16.0102963,15.322042 C15.5169631,15.322042 15.0262965,15.322042 14.53963,15.3633753"></path>
                        </g>
                        <g transform="translate(35.9339, -0)" id="Path">
                            <path d="M22.5641403,10.9122753 C22.3041404,12.1229416 21.3694739,12.1296083 20.0054743,12.5656082 C17.3001416,12.9402748 16.6348085,15.3469408 19.640141,15.5216075 L24.0854733,15.5216075 C26.4574727,15.5482741 31.7094714,15.6349408 33.213471,15.5589408 C35.9428036,15.4976075 36.5401368,13.545608 33.2361376,12.6669415 C32.3668045,12.4349416 30.9308049,11.6362751 30.9041382,9.93494219 C30.8961382,9.03360908 30.9041382,3.4709438 30.9041382,3.4709438 C30.9041382,3.4709438 29.4521386,-0.239721934 15.2574755,0.0122780029 C6.50547766,0.217611285 0.350812536,0.454944559 0,14.8976076 C-0.0478540312,33.6189363 11.756143,31.4922701 16.3454752,31.84027 C22.8601402,31.7429367 26.2681394,30.9402703 28.1721389,30.2349371 C31.0948048,29.2082707 31.2188048,27.7962711 31.2614715,25.2389384 C31.3014715,22.6642723 30.7308049,20.2616063 27.828139,20.1349396 C23.7588067,19.7936064 23.4534734,21.5842726 23.1628068,23.2162722 C22.5641403,28.0309377 22.2468071,28.2922709 17.0481417,28.3296043 C9.49481025,28.3789376 8.66414379,24.4109386 8.83614375,15.4429408 C8.97481038,8.68027584 9.10281035,3.77227706 16.4734752,3.8749437 C20.4134742,3.86561037 22.6321403,4.14694364 22.6321403,7.00560959 C22.6321403,7.00560959 22.8454736,9.56960895 22.5641403,10.9122753"></path>
                        </g>
                    </g>
                </g>
            </g>
            <rect id="Rectangle" stroke="#FFFFFF" stroke-width="3" x="1.5" y="1.5" width="107.43" height="58.84" rx="12"></rect>
        </g>
    </g>
</svg>