<?xml version="1.0" encoding="UTF-8"?>
<svg width="93px" height="68px" viewBox="0 0 93 68" version="1.1" xmlns="http://www.w3.org/2000/svg" xmlns:xlink="http://www.w3.org/1999/xlink">
    <title>R@2x</title>
    <g id="Page-1" stroke="none" stroke-width="1" fill="none" fill-rule="evenodd">
        <g id="R">
            <g id="Group" transform="translate(46.0062, 33.5793) scale(-1, 1) rotate(-180) translate(-46.0062, -33.5793)translate(19.754, 14.8367)" fill="#D71920" fill-rule="nonzero">
                <g id="Clipped" transform="translate(0, 0)">
                    <g id="Group" transform="translate(0, 0)">
                        <g transform="translate(0, 0)" id="Shape">
                            <path d="M32.5643814,26.84666 C32.4323814,20.6239948 31.3430483,21.1053281 25.5430498,20.9666614 C24.8457166,20.9493281 21.5043841,20.9666614 20.2750511,20.9666614 C20.3177178,22.8959943 20.3177178,31.0613256 20.3177178,31.0613256 C20.3177178,32.4093252 21.0790509,33.389325 22.5217172,33.437325 C32.3870481,33.7453249 32.687048,32.6213252 32.5643814,26.84666 M25.0310499,14.4879964 C25.9777163,13.22933 26.7057162,12.2093303 26.7057162,12.2093303 C27.9963825,10.498664 34.1390476,0.261333268 36.8817136,0.029333326 L50.5950435,0.011999997 C52.8483763,0.050666654 53.3390428,3.02666591 50.8017101,3.66799908 C49.7150437,4.02666566 46.2750446,4.27999893 41.7563791,9.96533084 C39.1230464,13.2026634 36.723047,16.179996 35.6083806,17.7279956 C41.900379,17.7279956 44.0790452,19.5986618 44.1577118,26.73866 C44.2257118,39.1973235 39.265713,37.0786574 25.6630498,37.3799907 C25.6630498,37.3799907 4.45238839,37.4506573 3.94438852,37.481324 C-0.660943661,37.6266573 -2.04494332,33.7253249 4.25238844,33.4266583 C7.49372097,33.193325 9.18438721,31.4813255 9.42838715,26.7413266 L9.42838715,9.85599754 C9.23372053,4.97333209 9.14572055,3.87199903 3.31238868,3.40533248 C0.128389475,3.36533249 -0.288943754,0.025333327 4.06972182,0 C4.66572167,0.017333329 25.1550499,0.029333326 25.1750499,0.029333326 C29.872382,-0.157333294 29.4323821,3.25066585 26.3403829,3.41199915 C22.2403839,3.72266574 20.3123844,3.0706659 20.1657178,8.2626646 C20.1430511,8.81866446 20.0470512,11.9106637 20.0470512,12.9026634 C20.0590512,17.341329 23.369717,16.9053291 25.0310499,14.4879964"></path>
                        </g>
                    </g>
                </g>
            </g>
            <rect id="Rectangle" stroke="#FFFFFF" stroke-width="3" x="1.5" y="1.5" width="89.5" height="64.49" rx="12"></rect>
        </g>
    </g>
</svg>