<?xml version="1.0" encoding="UTF-8"?>
<svg width="128px" height="52px" viewBox="0 0 128 52" version="1.1" xmlns="http://www.w3.org/2000/svg" xmlns:xlink="http://www.w3.org/1999/xlink">
    <title>NC-17</title>
    <g id="Page-1" stroke="none" stroke-width="1" fill="none" fill-rule="evenodd">
        <g id="NC-17" transform="translate(0, 0)">
            <g id="Group" transform="translate(63.854, 26.1368) scale(-1, 1) rotate(-180) translate(-63.854, -26.1368)translate(20.3372, 15.466)" fill="#FFFFFF">
                <g id="Clipped" transform="translate(-0, 0)">
                    <g id="Group" transform="translate(0, 0)">
                        <g transform="translate(25.8607, 0)" fill-rule="nonzero" id="Path">
                            <path d="M20.2131107,16.7578481 C20.2317773,19.2605141 19.6824442,19.556514 18.3877778,20.3058472 C16.146445,21.2311803 14.0877789,21.3738469 9.14911345,21.3151803 C4.77578121,21.1965136 2.87444836,19.7378473 1.34644874,16.9525147 C-0.177550881,13.8285155 -0.484217471,7.44451707 0.821115536,4.24185121 C1.25711543,3.37518476 1.30511541,1.57251854 5.26778109,0.423185495 C8.20244702,-0.222147677 14.4917788,-0.214147679 17.9291113,1.04451867 C17.9277779,1.04185201 20.2572575,1.8538518 20.2572575,4.42851783 C20.2717773,5.03518434 19.1877776,6.06585075 16.7837782,4.39251784 C14.7064454,2.79251824 10.2744465,2.57918496 8.41844697,3.38185142 C7.37444723,3.82585131 6.85711403,4.55785113 6.4197808,6.11918407 C6.19178086,6.86718388 5.42378105,14.7578486 7.06511397,17.0325147 C8.09578038,18.8925142 11.5717795,18.9565142 13.2437791,18.563181 C14.9264453,17.9311811 14.7291121,17.2991813 15.3877786,14.5738486 C15.9997784,13.4138489 16.9037782,13.4391822 18.2277779,13.4738489 C20.370444,13.5871822 20.2131107,15.1085152 20.2131107,16.7578481"></path>
                        </g>
                        <g transform="translate(48.0779, 8.4945)" id="Path">
                            <path d="M3.68080219,4.01733233 L5.68213503,4.01733233 C7.06346801,4.00266567 7.39946793,2.650666 7.36480127,1.80666622 C7.34613461,1.38266632 6.95146804,0 5.68213503,0 L1.92613596,0.018666662 C0.678136276,0.041333323 0.0221364402,0.643999839 0.000803112206,1.80666622 C-0.0271968808,3.28666585 0.678136276,3.91599902 1.9314693,4.01733233 L3.68080219,4.01733233 Z"></path>
                        </g>
                        <g transform="translate(56.6506, 0.3848)" id="Path">
                            <path d="M0.820393343,18.9719953 C3.33505938,19.8346617 4.52972575,20.2946616 6.06439203,20.5079949 C7.09772511,20.5306615 8.54172475,20.5706615 9.32172455,20.5439949 C9.6630578,20.5439949 9.66572446,20.2919949 9.65239113,20.0533283 C9.62305781,19.3106618 9.65239113,18.3559954 9.65239113,16.7306625 L9.65239113,4.2506656 C9.63505781,2.60399935 10.068391,1.96266618 11.625724,1.93999952 L11.8883906,1.93999952 C13.2857236,1.92266619 13.2697236,0.014666663 12.0443905,0 C10.7723909,0 8.63505806,0.014666663 6.4470586,0.014666663 L1.74172645,0.014666663 C0.473726763,-0.025333327 0.224393492,1.83733287 1.8003931,1.96666618 L2.28439298,1.96666618 C3.2750594,2.1253328 3.75639261,2.18399945 3.81505926,4.2506656 L3.87239258,15.1519962 C3.83505926,15.9986627 4.17905917,16.9413291 2.41505961,16.7373291 C-0.18093974,16.1893293 -0.636939626,18.3919954 0.820393343,18.9719953"></path>
                        </g>
                        <g transform="translate(0, 0.2365)" id="Path">
                            <path d="M18.7860776,8.1333313 C18.7874109,8.1333313 18.7980776,16.1733293 18.7980776,16.1733293 C18.7607443,18.5853287 17.5327446,18.4439954 16.8114114,18.694662 C14.671412,19.0466619 15.0634119,20.7213282 16.4887449,20.7719948 C17.3447446,20.7546615 23.5100764,20.8013281 24.3367429,20.7719948 C25.7620759,20.7213282 26.2687424,19.4466618 24.4180762,18.7613286 C24.008743,18.5759954 22.3114101,18.5853287 22.2714101,16.1733293 L22.3327434,2.02133283 C22.3327434,2.02133283 22.5007434,0 21.1154104,0 C21.1047437,0 18.4940777,0 18.4940777,0.006666665 C17.7327445,-0.033333325 17.298078,0.2666666 16.8287448,0.778666472 C16.8287448,0.778666472 7.09408054,13.6373299 7.09541387,13.6373299 C7.01541389,13.8133299 6.90474725,13.8599965 6.9674139,13.6226633 L6.99008056,4.7879988 C6.92074725,2.69733266 7.33941381,2.30533276 9.11008003,2.06133282 C11.5540794,1.7253329 10.8180796,0.050666654 9.48607994,0.009333331 C9.48607994,0.006666665 1.20208201,0 1.20208201,0 C-0.463250908,0.059999985 -0.452584244,1.80933288 1.57541525,2.11066614 C1.57941525,2.11066614 3.56074809,2.19199945 3.53808143,4.62533218 L3.53808143,16.6693292 C3.42874812,18.694662 2.38074838,18.3479954 0.728748794,18.822662 C-0.296584283,19.1133286 -0.271250956,20.7346615 1.31408198,20.7719948 C2.98874823,20.8586615 4.12608128,20.8279948 5.31141432,20.8266615 C6.63141399,20.8013281 8.54608017,20.9293281 8.99808006,20.3999949 L18.647411,7.983998 C18.647411,7.983998 18.8594109,7.57466477 18.7860776,8.1333313"></path>
                        </g>
                        <g transform="translate(70.1253, 0.2443)" id="Path">
                            <path d="M10.9693306,16.9719958 C10.2346641,17.0079957 9.09466439,16.9719958 7.43599814,16.9359958 C3.12799922,16.6399958 6.22133178,14.9506629 3.23866586,14.2813298 C-0.37333324,13.8053299 0.107999973,15.7226627 0,16.6799958 C0.033333325,18.4506621 0.14666663,19.1106619 1.13866638,19.8426617 C2.54266603,20.9466614 5.55733194,21.0973281 8.83599779,21.0973281 L14.1373298,21.0973281 C15.2079962,21.0559947 16.4933292,20.8053281 16.7893291,19.6546618 C16.9773291,18.5933287 16.9773291,17.7133289 16.5333292,16.8599958 C13.5893299,10.3439974 11.967997,6.66533167 9.75199756,1.47199963 C9.42533098,0.58666652 9.27466435,0.034666658 8.20933128,0 L4.30533226,0 C3.12799922,0 3.64533242,1.09999972 3.93733235,1.76399956 C6.73866498,7.7253314 8.83599779,12.3693302 10.9693306,16.9719958"></path>
                        </g>
                    </g>
                </g>
            </g>
            <rect id="Rectangle" stroke="#FFFFFF" stroke-width="3" x="1.5" y="1.5" width="124.03" height="48.34" rx="12"></rect>
        </g>
    </g>
</svg>