<?xml version="1.0" encoding="UTF-8"?>
<svg width="121px" height="51px" viewBox="0 0 121 51" version="1.1" xmlns="http://www.w3.org/2000/svg" xmlns:xlink="http://www.w3.org/1999/xlink">
    <title>PG-13</title>
    <g id="Page-1" stroke="none" stroke-width="1" fill="none" fill-rule="evenodd">
        <g id="PG-13" transform="translate(-0, 0)">
            <g id="Group" transform="translate(60.1114, 25.1744) scale(-1, 1) rotate(-180) translate(-60.1114, -25.1744)translate(19.1928, 14.7951)" fill="#FFFFFF" fill-rule="nonzero">
                <g id="Clipped" transform="translate(0, 0)">
                    <g id="Group" transform="translate(0, 0)">
                        <g transform="translate(-0, 0.8319)" id="Shape">
                            <path d="M12.0748983,1.98126142 C10.2388988,2.30259468 9.27223236,2.49859463 9.33623235,4.40659415 L9.30156569,7.65192667 C9.90023221,7.61992668 10.5335654,7.64126001 11.0548986,7.64126001 C18.1375635,7.64126001 21.9775625,6.96126018 21.5042293,14.3145917 C21.418896,19.3599237 17.9642302,19.1532571 10.5655654,19.1532571 C8.00689935,19.1532571 6.00689985,19.0905905 4.53490021,19.0905905 C3.44823382,19.0905905 2.68690068,19.1332571 1.15490106,19.0532572 C-0.289098579,19.0199238 -0.39176522,17.7185908 0.918901119,17.2892576 C2.36156742,16.6745911 3.55356713,17.122591 3.6535671,15.2639248 L3.6535671,4.26126085 C3.61890044,2.06392807 2.22023413,2.2065947 1.50690097,1.91592811 C-0.425098545,1.75459481 -0.195765269,0.0812618986 1.10556774,0.0319285776 C1.86156755,0.00259525162 3.20156721,0.0185952476 4.81623348,0.0185952476 C8.10956599,0.0185952476 12.025565,-0.0160714104 12.8948981,0.00926191662 C14.1348978,0.0505952396 14.2948978,1.8225948 12.0748983,1.98126142 M9.33623235,9.87192612 L9.33623235,16.1919245 C9.33623235,16.8319244 9.79223223,16.9812577 11.1975652,16.9812577 C14.2682311,17.0199243 15.1908976,16.3425912 15.4215642,14.0625917 C15.4882308,9.61325952 13.9988978,9.84259279 10.2842321,9.84259279 C9.96956552,9.84259279 9.65623227,9.84259279 9.33623235,9.87192612"></path>
                        </g>
                        <g transform="translate(22.7104, 0)" id="Path">
                            <path d="M14.4921059,7.01101798 C14.3281059,7.78168445 13.7267727,7.79501778 12.8521063,8.06835105 C11.1107734,8.31368432 10.6894402,9.85901727 12.6161064,9.97235057 L15.4721056,9.97235057 C16.9947719,9.98301724 20.3681044,10.0390172 21.3361042,9.99235057 C23.0934371,9.95635058 23.477437,8.70035089 21.3534375,8.13768436 C20.7921043,7.98301774 19.8707712,7.4763512 19.8574379,6.3776848 C19.8507712,5.80435161 19.8574379,2.22435251 19.8574379,2.22435251 C19.8574379,2.22435251 18.9227714,-0.158313561 9.80410706,0.00835306373 C4.17877513,0.135019699 0.22277612,0.289686327 0,9.56968401 C-0.0332238159,21.5950143 7.55210762,20.2336813 10.4974402,20.4510146 C14.6867725,20.3910146 16.878772,19.8763481 18.096105,19.4230149 C19.9747712,18.7616817 20.0574378,17.8590153 20.0827712,16.2070157 C20.1067711,14.5576828 19.7427712,13.0150165 17.880105,12.9310165 C15.2641057,12.7123499 15.0681057,13.8683496 14.8801058,14.915016 C14.4907726,17.6403487 13.7747727,18.2056818 10.9507734,18.2016818 C6.09877465,18.2376818 5.56944145,15.6776825 5.67877476,9.92301725 C5.76277474,5.56968501 5.84677471,2.42035246 10.5801069,2.48301911 C13.1161062,2.47768578 14.5441059,2.65501907 14.5441059,4.49501861 C14.5441059,4.49501861 14.6787725,6.1470182 14.4921059,7.01101798"></path>
                        </g>
                        <g transform="translate(52.3252, 0.9332)" id="Path">
                            <path d="M0.76274567,17.6331156 C3.10274509,18.4344487 4.20941148,18.8677819 5.63607779,19.0624486 C6.60407754,19.0811152 7.94541054,19.1131152 8.66674369,19.0904486 C8.98141028,19.0904486 8.98407695,18.8571153 8.97474362,18.639782 C8.94407696,17.9451155 8.97474362,17.0531157 8.97474362,15.5557828 L8.97474362,3.94645235 C8.95741029,2.42111939 9.35874352,1.82245288 10.8040765,1.80378622 L11.0534098,1.80378622 C12.3507428,1.78911955 12.3347428,0.00511999872 11.1974097,0.00111999972 C10.0120767,-0.00287999928 8.02941052,0.00511999872 5.9960777,0.00511999872 L1.62007879,0.00511999872 C0.445412416,-0.0215466613 0.210745808,1.70645291 1.67741211,1.82778621 L2.129412,1.82778621 C3.04941177,1.97845284 3.49874499,2.02778616 3.54941164,3.94645235 L3.60274496,14.0757831 C3.56674497,14.8677829 3.88807822,15.7371161 2.24407863,15.5557828 C-0.163920765,15.0437829 -0.594587324,17.0984491 0.76274567,17.6331156"></path>
                        </g>
                        <g transform="translate(65.539, 0.4144)" id="Path">
                            <path d="M4.9213321,0.0992514197 C0.555999861,0.321918031 0.099999975,1.2379178 0.054666653,3.13258399 C0.002666666,4.41658367 0.099999975,5.54591672 1.38533299,6.06058326 C2.43333273,6.46991649 4.2586656,6.57258313 4.9213321,3.55925055 C5.28533201,2.41258417 7.09599823,2.56991747 7.5919981,2.56991747 C9.11599772,2.56991747 11.0239972,2.92725071 11.1946639,5.71125002 C11.3586638,7.67924952 11.0959972,8.29924937 10.1159975,8.90458255 C8.34133125,9.6459157 5.89599853,8.56058264 5.49466529,10.0245823 C5.22533203,12.4032483 6.86666495,11.3339153 9.40533098,11.8685818 C10.7959973,12.1525817 11.1586639,12.9365815 11.1173306,15.0419144 C11.0106639,17.903247 9.00666441,17.9539136 7.27066485,17.8379137 C3.22533253,17.5819137 5.83199854,14.6872478 3.0506659,14.0792479 C-0.343999914,13.6379147 0.085333312,15.4125809 0,16.3165807 C0.033333325,18.0059136 0.115999971,18.5845801 1.0746664,19.2939133 C2.3959994,20.333913 4.82533213,20.3645797 8.21333128,20.3392464 C10.1186641,20.3192464 15.5453294,20.4032463 16.2266626,15.9365808 C16.5133292,12.8325816 15.975996,11.9779151 13.9026632,10.8659154 C15.2266629,9.86324898 16.2999959,8.83524924 16.1893293,5.68191669 C15.6879961,-0.52741509 9.83599754,-0.118081859 4.9213321,0.0992514197"></path>
                        </g>
                        <g transform="translate(46.6912, 9.047)" id="Path">
                            <path d="M3.39804148,3.71199907 L5.24604102,3.71199907 C6.51537403,3.69333241 6.82870729,2.44399939 6.79137396,1.66799958 C6.7767073,1.28133301 6.41670739,0 5.24604102,0 L1.77670855,0.01333333 C0.630042169,0.03999999 0.0287089863,0.587999853 0.000708993331,1.66799958 C-0.0246243337,3.03333257 0.630042169,3.61066576 1.78737521,3.71199907 L3.39804148,3.71199907"></path>
                        </g>
                    </g>
                </g>
            </g>
            <rect id="Rectangle" stroke="#FFFFFF" stroke-width="3" x="1.5" y="1.5" width="117.84" height="47.76" rx="12"></rect>
        </g>
    </g>
</svg>